# xmcd
#
# Track frame offsets:
#	150
#	14412
#	25802
#	38327
#	52197
#	64155
#	73645
#	88262
#	101332
#	113052
#	126187
#	137765
#	150822
#	164445
#	178470
#	191222
#	204602
#	218467
#	231545
#	242940
#
# Disc length: 3390 seconds
#
# Revision: 0
# Processed by: cddbd v1.5.2PL0 Copyright (c) Steve Scherf et al.
# Submitted via: EasyCDDAExtractor 12.0.4.1
#
DISCID=200d3c14
DTITLE=Valderi e Mizael - Raízes Sertanejas
DYEAR=1900
DGENRE=Sertanejo
TTITLE0=Explode Coração
TTITLE1=A Litorina
TTITLE2=Nosso Dilema
TTITLE3=Distante de Quem se Ama
TTITLE4=Maldito Dinheiro
TTITLE5=Quem Ama Não Vê Defeito
TTITLE6=Ainda Pego Essa Mulher de Jeito
TTITLE7=Voltei Pra Ficar
TTITLE8=Bicho Mato
TTITLE9=Essa Noite Eu Durmo Sozinho (Taça de Vinho)
TTITLE10=Mulher dos Meus Sonhos
TTITLE11=Quarto de Saudade
TTITLE12=O Mártir do Calvário
TTITLE13=Chorarei ao Amanhecer
TTITLE14=Estrela Dourada
TTITLE15=Cara ou Coroa
TTITLE16=Conselho de Pai
TTITLE17=Solidão
TTITLE18=Moda do Outro
TTITLE19=Jeito Bandido
EXTD=
EXTT0=
EXTT1=
EXTT2=
EXTT3=
EXTT4=
EXTT5=
EXTT6=
EXTT7=
EXTT8=
EXTT9=
EXTT10=
EXTT11=
EXTT12=
EXTT13=
EXTT14=
EXTT15=
EXTT16=
EXTT17=
EXTT18=
EXTT19=
PLAYORDER=
